HIERARCHY
ROOT Hips
{
  OFFSET 109.771 95.5254 57.2159
  CHANNELS 6 Xposition Yposition Zposition Zrotation Xrotation Yrotation
  JOINT RightUpLeg
  {
    OFFSET -8.9458 -8.66707 0.101652
    CHANNELS 3 Zrotation Xrotation Yrotation
    JOINT RightLeg
    {
      OFFSET 0 -44.4227 1.3727
      CHANNELS 3 Zrotation Xrotation Yrotation
      JOINT RightFoot
      {
        OFFSET 0.253549 -42.0924 -1.46059
        CHANNELS 3 Zrotation Xrotation Yrotation
        JOINT RightToes
        {
          OFFSET 0.04 -4.41509 8.4991
          CHANNELS 3 Zrotation Xrotation Yrotation
          End Site
          {
            OFFSET -0.08 -0.137448 9.77979
          }
        }
      }
    }
  }
  JOINT Spine
  {
    OFFSET 0 11.8905 0
    CHANNELS 3 Zrotation Xrotation Yrotation
    JOINT Spine1
    {
      OFFSET 0 25.6574 0.127663
      CHANNELS 3 Zrotation Xrotation Yrotation
      JOINT HEad
      {
        OFFSET 0 8.73416 0.011341
        CHANNELS 3 Zrotation Xrotation Yrotation
        End Site
        {
          OFFSET -0.29 12.7742 2.51395
        }
      }
      JOINT LeftShoulder1
      {
        OFFSET 8.99 -0.362252 -0.22
        CHANNELS 3 Zrotation Xrotation Yrotation
        JOINT LeftArm
        {
          OFFSET 10.2827 -0.00338 0.322123
          CHANNELS 3 Zrotation Xrotation Yrotation
          JOINT LeftForeArm
          {
            OFFSET 32.7669 0.099144 -1.42434
            CHANNELS 3 Zrotation Xrotation Yrotation
            JOINT LeftHand
            {
              OFFSET 27.5643 0.085362 1.02216
              CHANNELS 3 Zrotation Xrotation Yrotation
              End Site
              {
                OFFSET 16.7443 -0.6 1.50291
              }
            }
          }
        }
      }
      JOINT RightShoulder
      {
        OFFSET -8.99 -0.362252 -0.22
        CHANNELS 3 Zrotation Xrotation Yrotation
        JOINT RightArm
        {
          OFFSET -10.2827 -0.00338 0.322123
          CHANNELS 3 Zrotation Xrotation Yrotation
          JOINT RightForeArm
          {
            OFFSET -32.8971 0.099144 -1.42434
            CHANNELS 3 Zrotation Xrotation Yrotation
            JOINT RightHand
            {
              OFFSET -27.4921 0.085362 1.02216
              CHANNELS 3 Zrotation Xrotation Yrotation
              End Site
              {
                OFFSET -16.6312 -0.6 1.50291
              }
            }
          }
        }
      }
    }
  }
  JOINT LeftUpLeg
  {
    OFFSET 8.9458 -8.66707 0.101652
    CHANNELS 3 Zrotation Xrotation Yrotation
    JOINT LeftLeg
    {
      OFFSET 0 -44.4227 1.3727
      CHANNELS 3 Zrotation Xrotation Yrotation
      JOINT LeftFoot
      {
        OFFSET -0.253549 -42.0924 -1.46059
        CHANNELS 3 Zrotation Xrotation Yrotation
        JOINT LeftToes
        {
          OFFSET -0.04 -4.41509 8.4991
          CHANNELS 3 Zrotation Xrotation Yrotation
          End Site
          {
            OFFSET 0.08 -0.047448 9.77979
          }
        }
      }
    }
  }
}
MOTION
Frames:	12
Frame Time:	0.0166667
131.707 91.8148 56.7967 5.76039 -3.06947 163.247 -17.0821 -3.50091 1.91778 5.31112 35.3369 -12.7226 4.95926 -7.91557 -0.162266 -13.8749 -20.8486 -14.4208 -1.00254 4.37917 3.00387 1.35468 8.25508 6.27131 -0.564588 -3.5196 3.17842 -1.59028e-015 0 1.59028e-015 -67.6134 -14.759 -7.22266 0.0365885 25.9347 -126.908 30.4008 1.84069 -25.5393 19.2082 3.25112 12.6553 60.1076 -20.4101 28.2502 -13.8138 26.4075 146.064 -7.84991 13.3308 -56.6416 11.2525 -32.284 0.0411475 24.6842 33.7042 -37.8341 -12.0843 0.920482 0.88685 21.5598 -30.97 -4.57662 
131.717 92.5626 55.9276 5.34297 -4.09878 168.156 -16.8723 -1.72857 2.50706 7.67216 33.6403 -18.1234 6.19539 -9.9552 -0.0613119 -8.88323 -14.563 -14.0002 -1.11433 3.81997 3.78112 0.75342 7.13722 7.87833 0.874268 -3.71024 -2.55691 -9.19379e-016 -3.18055e-015 -3.97569e-016 -67.2413 -10.422 -9.41278 0.0324916 25.6253 -126.18 30.2249 1.94178 -25.3601 17.8211 3.01357 12.3903 59.265 -24.702 29.9644 -13.3381 27.3642 145.696 -8.19596 13.5109 -56.8178 8.78597 -33.1456 -0.708063 25.0958 29.847 -41.1441 -13.699 1.84345 1.11375 21.2704 -31.2329 -5.71944 
131.723 93.1811 55.0965 5.03754 -4.97746 172.946 -16.5399 -0.0525016 2.95788 9.61687 32.2031 -23.0465 7.69894 -11.8749 0.0878483 -4.29881 -8.57887 -13.8072 -1.22301 3.36374 4.71816 0.010579 6.24928 9.76493 2.30562 -4.34904 -8.84743 7.95139e-016 -1.59028e-015 -0 -66.5718 -6.39284 -12.0485 0.157659 25.3577 -125.41 30.2872 2.04164 -24.945 16.1511 2.74655 12.1178 58.5138 -30.0361 32.5164 -13.1467 28.9383 144.484 -8.73491 13.759 -56.6806 6.28084 -33.7408 -1.3916 25.351 26.2259 -44.4109 -14.9422 2.60759 1.31316 20.8771 -31.203 -6.62234 
131.725 93.675 54.3255 4.78529 -5.623 177.246 -16.1551 1.50067 3.22664 11.0416 31.0583 -27.1111 9.32526 -13.6312 0.283537 -0.326094 -3.27801 -13.7619 -1.35683 3.04871 5.79012 -0.828046 5.6528 11.8838 3.40335 -5.40958 -15.1376 -7.95139e-016 1.59028e-015 -1.59028e-015 -65.7026 -3.10376 -14.8548 0.370235 25.1124 -124.662 30.4741 2.1259 -24.4646 14.2225 2.47672 11.9592 58.4377 -36.4191 36.5172 -13.4162 31.7334 141.6 -9.97549 14.2809 -55.9195 3.97147 -33.9943 -1.80083 25.4318 23.1244 -47.6402 -15.5427 2.86934 1.40166 20.1964 -30.3179 -6.80235 
131.73 94.0549 53.6257 4.53206 -6.01509 -179.222 -15.786 2.90943 3.28404 11.9037 30.2027 -30.0663 10.8603 -15.1016 0.49922 2.83489 0.982289 -13.8315 -1.49953 2.88197 6.92666 -1.68259 5.34735 14.1213 3.86129 -6.61662 -20.8578 -7.95139e-016 0 3.18055e-015 -64.7956 -0.893203 -17.478 0.672834 24.8503 -124.045 30.7391 2.18664 -23.9974 11.9547 2.20385 12.0084 60.3546 -43.447 43.155 -14.2512 36.5998 136.136 -12.5086 15.286 -54.3584 2.07104 -33.9458 -1.8853 25.3439 20.762 -50.6854 -15.4895 2.52659 1.35251 19.218 -28.5016 -6.10659 
131.745 94.3348 52.9959 4.27317 -6.22383 -176.582 -15.4936 4.1169 3.19963 12.3402 29.5822 -31.9329 12.0748 -16.2167 0.694541 5.15586 4.11163 -13.9629 -1.6134 2.83114 8.03552 -2.4566 5.2597 16.3288 3.56515 -7.58752 -25.5722 0 0 -3.18055e-015 -64.0435 0.0965206 -19.6007 1.06416 24.5474 -123.658 31.0808 2.24066 -23.49 9.18935 1.8968 12.2763 66.2092 -49.8762 54.1368 -15.3948 44.402 127.255 -17.1383 16.9713 -51.7977 0.729632 -33.7551 -1.75055 25.0781 19.2095 -53.1625 -15.1107 1.91648 1.24167 18.244 -26.4802 -4.93304 
131.775 94.5433 52.4152 4.02996 -6.37078 -174.83 -15.3642 5.06762 3.15912 12.6544 29.0571 -32.9349 12.7351 -16.9928 0.829889 6.77491 6.29798 -14.0606 -1.72339 2.8451 9.05811 -3.09262 5.27872 18.3781 2.67398 -8.07303 -29.0902 -7.95139e-016 0 6.36111e-015 -63.6097 -0.0343821 -21.0487 1.52596 24.2386 -123.542 31.4971 2.32503 -22.822 5.81526 1.51298 12.667 76.4421 -53.4518 69.6485 -14.8998 55.0795 113.292 -24.781 19.3193 -47.7572 -0.0287792 -33.5752 -1.54879 24.6357 18.3414 -54.6801 -14.8312 1.51494 1.16847 17.6729 -25.1492 -3.88169 
131.83 94.702 51.8648 3.84058 -6.53837 -173.771 -15.4269 5.75991 3.25664 13.0984 28.5547 -33.2203 12.68 -17.5141 0.881857 7.8435 7.77937 -14.0216 -1.85012 2.87543 9.93435 -3.59165 5.30675 20.145 1.56366 -8.07784 -31.4722 -3.18055e-015 0 3.18055e-015 -63.5527 -0.997536 -21.8104 2.03649 24.0154 -123.664 31.982 2.46065 -21.938 1.93666 1.04022 13.0292 68.6037 -45.4402 72.6023 -5.25912 50.4319 82.0942 -32.4244 20.9058 -42.9432 -0.324655 -33.4769 -1.4468 24.0619 17.9347 -55.1477 -14.823 1.60178 1.1785 17.7393 -24.9508 -3.28079 
131.907 94.8311 51.3238 3.74269 -6.72871 -173.082 -15.5959 6.29013 3.39795 13.6645 28.0688 -32.6578 11.921 -17.8317 0.846709 8.38748 8.62854 -13.751 -1.98922 2.8865 10.5938 -3.98208 5.28665 21.4758 0.708291 -7.80119 -32.9015 -8.82781e-032 -1.59028e-015 -3.18055e-015 -63.7996 -2.42326 -21.9661 2.57337 23.9264 -123.954 32.5055 2.63629 -20.9135 -1.97533 0.537083 13.2815 38.8433 -22.4616 66.0224 -8.0142 8.08794 43.061 -33.1436 17.8468 -31.9147 -0.366526 -33.41 -1.58309 23.4508 17.732 -54.8025 -14.9764 2.16077 1.26067 18.3876 -25.7584 -3.09874 
132.002 94.9493 50.7821 3.77776 -6.89392 -172.491 -15.686 6.74199 3.46971 14.1257 27.6606 -30.98 10.6155 -17.8842 0.73178 8.24313 8.6517 -13.1458 -2.11237 2.86561 10.9763 -4.27996 5.21203 22.2425 0.496174 -7.49843 -33.5327 3.18055e-015 0 -3.18055e-015 -64.2048 -3.97075 -21.6179 3.07211 23.9135 -124.329 32.9787 2.81523 -19.9465 -5.11764 0.120938 13.4907 21.9491 -8.39728 67.7762 -20.3062 -17.7984 12.7122 -28.2112 14.9289 -25.1399 -0.307005 -33.2954 -1.92741 22.9499 17.5522 -54.1432 -15.0911 2.86481 1.35896 19.254 -26.9502 -3.09358 
132.113 95.0774 50.2456 3.9629 -6.97507 -171.927 -15.5353 7.11003 3.49957 14.2246 27.4034 -28.1038 8.92807 -17.4752 0.546206 7.14524 7.47423 -12.1158 -2.19673 2.83547 11.0757 -4.48685 5.13763 22.4338 1.04562 -7.33783 -33.453 3.18055e-015 -1.59028e-015 3.18055e-015 -64.6474 -5.42774 -20.8877 3.41448 23.8994 -124.703 33.2956 2.94734 -19.2727 -6.72672 -0.0994748 13.7796 16.6306 -3.71231 69.8077 -18.5181 -26.9865 5.72052 -17.866 13.2272 -26.5735 -0.172339 -33.0722 -2.27801 22.6863 17.3443 -53.6833 -15.0157 3.24468 1.3993 19.8279 -27.6999 -3.01732 
132.232 95.2321 49.7309 4.27006 -6.93435 -171.494 -15.1215 7.32804 3.59568 13.8383 27.3317 -24.4 7.11182 -16.4714 0.328447 5.05752 4.95005 -10.6676 -2.23872 2.83985 10.9578 -4.61215 5.14849 22.191 2.16889 -7.3111 -32.7438 -1.59028e-015 4.77083e-015 -9.54166e-015 -65.0714 -6.73193 -19.945 3.50729 23.9068 -125.006 33.4218 2.99912 -19.0104 -6.5147 -0.0755845 14.1543 18.32 -2.88249 70.2918 -17.0406 -29.7974 5.30124 -5.96398 11.0698 -29.9089 0.0952004 -32.7054 -2.46233 22.662 17.1564 -53.6064 -14.6948 3.03548 1.34283 19.7946 -27.5264 -2.77361 
